<!-- SPDX-License-Identifier: GPL-3.0-or-later -->
<!-- SPDX-FileCopyrightText: 2025 e-editiones.org -->
<svg xmlns="http://www.w3.org/2000/svg" style="display: none;">
    <symbol id="icon-upload" fill="currentColor" viewBox="0 0 16 16">
        <path
            d="M.5 9.9a.5.5 0 0 1 .5.5v2.5a1 1 0 0 0 1 1h12a1 1 0 0 0 1-1v-2.5a.5.5 0 0 1 1 0v2.5a2 2 0 0 1-2 2H2a2 2 0 0 1-2-2v-2.5a.5.5 0 0 1 .5-.5" />
        <path
            d="M7.646 1.146a.5.5 0 0 1 .708 0l3 3a.5.5 0 0 1-.708.708L8.5 2.707V11.5a.5.5 0 0 1-1 0V2.707L5.354 4.854a.5.5 0 1 1-.708-.708z" />
    </symbol>

    <symbol id="icon-clipboard" fill="currentColor" viewBox="0 0 16 16">
        <path
            d="M4 1.5H3a2 2 0 0 0-2 2V14a2 2 0 0 0 2 2h10a2 2 0 0 0 2-2V3.5a2 2 0 0 0-2-2h-1v1h1a1 1 0 0 1 1 1V14a1 1 0 0 1-1 1H3a1 1 0 0 1-1-1V3.5a1 1 0 0 1 1-1h1z" />
        <path
            d="M9.5 1a.5.5 0 0 1 .5.5v1a.5.5 0 0 1-.5.5h-3a.5.5 0 0 1-.5-.5v-1a.5.5 0 0 1 .5-.5zm-3-1A1.5 1.5 0 0 0 5 1.5v1A1.5 1.5 0 0 0 6.5 4h3A1.5 1.5 0 0 0 11 2.5v-1A1.5 1.5 0 0 0 9.5 0z" />
    </symbol>

    <symbol id="icon-home" viewBox="0 0 16 16">
        <path
            d="M8.707 1.5a1 1 0 0 0-1.414 0L.646 8.146a.5.5 0 0 0 .708.708L2 8.207V13.5A1.5 1.5 0 0 0 3.5 15h9a1.5 1.5 0 0 0 1.5-1.5V8.207l.646.647a.5.5 0 0 0 .708-.708L13 5.793V2.5a.5.5 0 0 0-.5-.5h-1a.5.5 0 0 0-.5.5v1.293zM13 7.207V13.5a.5.5 0 0 1-.5.5h-9a.5.5 0 0 1-.5-.5V7.207l5-5z" />
    </symbol>

    <symbol id="icon-folder" viewBox="0 0 16 16">
        <path
            d="M.54 3.87.5 3a2 2 0 0 1 2-2h3.672a2 2 0 0 1 1.414.586l.828.828A2 2 0 0 0 9.828 3h3.982a2 2 0 0 1 1.992 2.181l-.637 7A2 2 0 0 1 13.174 14H2.826a2 2 0 0 1-1.991-1.819l-.637-7a2 2 0 0 1 .342-1.31zM2.19 4a1 1 0 0 0-.996 1.09l.637 7a1 1 0 0 0 .995.91h10.348a1 1 0 0 0 .995-.91l.637-7A1 1 0 0 0 13.81 4zm4.69-1.707A1 1 0 0 0 6.172 2H2.5a1 1 0 0 0-1 .981l.006.139q.323-.119.684-.12h5.396z" />
    </symbol>

    <symbol id="icon-file" viewBox="0 0 16 16">
        <path
            d="M14 4.5V14a2 2 0 0 1-2 2H4a2 2 0 0 1-2-2V2a2 2 0 0 1 2-2h5.5zm-3 0A1.5 1.5 0 0 1 9.5 3V1H4a1 1 0 0 0-1 1v12a1 1 0 0 0 1 1h8a1 1 0 0 0 1-1V4.5z" />
    </symbol>

    <symbol id="icon-filetype-xml" viewBox="0 0 16 16">
        <path fill-rule="evenodd"
            d="M14 4.5V14a2 2 0 0 1-2 2v-1a1 1 0 0 0 1-1V4.5h-2A1.5 1.5 0 0 1 9.5 3V1H4a1 1 0 0 0-1 1v9H2V2a2 2 0 0 1 2-2h5.5zM3.527 11.85h-.893l-.823 1.439h-.036L.943 11.85H.012l1.227 1.983L0 15.85h.861l.853-1.415h.035l.85 1.415h.908l-1.254-1.992zm.954 3.999v-2.66h.038l.952 2.159h.516l.946-2.16h.038v2.661h.715V11.85h-.8l-1.14 2.596h-.025L4.58 11.85h-.806v3.999zm4.71-.674h1.696v.674H8.4V11.85h.791z" />
    </symbol>
    <symbol id="icon-filetype-json" viewBox="0 0 16 16">
        <path fill-rule="evenodd"
            d="M14 4.5V11h-1V4.5h-2A1.5 1.5 0 0 1 9.5 3V1H4a1 1 0 0 0-1 1v9H2V2a2 2 0 0 1 2-2h5.5zM4.151 15.29a1.2 1.2 0 0 1-.111-.449h.764a.58.58 0 0 0 .255.384q.105.073.25.114.142.041.319.041.245 0 .413-.07a.56.56 0 0 0 .255-.193.5.5 0 0 0 .084-.29.39.39 0 0 0-.152-.326q-.152-.12-.463-.193l-.618-.143a1.7 1.7 0 0 1-.539-.214 1 1 0 0 1-.352-.367 1.1 1.1 0 0 1-.123-.524q0-.366.19-.639.192-.272.528-.422.337-.15.777-.149.456 0 .779.152.326.153.5.41.18.255.2.566h-.75a.56.56 0 0 0-.12-.258.6.6 0 0 0-.246-.181.9.9 0 0 0-.37-.068q-.324 0-.512.152a.47.47 0 0 0-.185.384q0 .18.144.3a1 1 0 0 0 .404.175l.621.143q.326.075.566.211a1 1 0 0 1 .375.358q.135.222.135.56 0 .37-.188.656a1.2 1.2 0 0 1-.539.439q-.351.158-.858.158-.381 0-.665-.09a1.4 1.4 0 0 1-.478-.252 1.1 1.1 0 0 1-.29-.375m-3.104-.033a1.3 1.3 0 0 1-.082-.466h.764a.6.6 0 0 0 .074.27.5.5 0 0 0 .454.246q.285 0 .422-.164.137-.165.137-.466v-2.745h.791v2.725q0 .66-.357 1.005-.355.345-.985.345a1.6 1.6 0 0 1-.568-.094 1.15 1.15 0 0 1-.407-.266 1.1 1.1 0 0 1-.243-.39m9.091-1.585v.522q0 .384-.117.641a.86.86 0 0 1-.322.387.9.9 0 0 1-.47.126.9.9 0 0 1-.47-.126.87.87 0 0 1-.32-.387 1.55 1.55 0 0 1-.117-.641v-.522q0-.386.117-.641a.87.87 0 0 1 .32-.387.87.87 0 0 1 .47-.129q.265 0 .47.129a.86.86 0 0 1 .322.387q.117.255.117.641m.803.519v-.513q0-.565-.205-.973a1.46 1.46 0 0 0-.59-.63q-.38-.22-.916-.22-.534 0-.92.22a1.44 1.44 0 0 0-.589.628q-.205.407-.205.975v.513q0 .562.205.973.205.407.589.626.386.217.92.217.536 0 .917-.217.384-.22.589-.626.204-.41.205-.973m1.29-.935v2.675h-.746v-3.999h.662l1.752 2.66h.032v-2.66h.75v4h-.656l-1.761-2.676z" />
    </symbol>
    <symbol id="icon-filetype-css" viewBox="0 0 16 16">
        <path fill-rule="evenodd"
            d="M14 4.5V14a2 2 0 0 1-2 2h-1v-1h1a1 1 0 0 0 1-1V4.5h-2A1.5 1.5 0 0 1 9.5 3V1H4a1 1 0 0 0-1 1v9H2V2a2 2 0 0 1 2-2h5.5zM3.397 14.841a1.13 1.13 0 0 0 .401.823q.195.162.478.252.284.091.665.091.507 0 .859-.158.354-.158.539-.44.187-.284.187-.656 0-.336-.134-.56a1 1 0 0 0-.375-.357 2 2 0 0 0-.566-.21l-.621-.144a1 1 0 0 1-.404-.176.37.37 0 0 1-.144-.299q0-.234.185-.384.188-.152.512-.152.214 0 .37.068a.6.6 0 0 1 .246.181.56.56 0 0 1 .12.258h.75a1.1 1.1 0 0 0-.2-.566 1.2 1.2 0 0 0-.5-.41 1.8 1.8 0 0 0-.78-.152q-.439 0-.776.15-.337.149-.527.421-.19.273-.19.639 0 .302.122.524.124.223.352.367.228.143.539.213l.618.144q.31.073.463.193a.39.39 0 0 1 .152.326.5.5 0 0 1-.085.29.56.56 0 0 1-.255.193q-.167.07-.413.07-.175 0-.32-.04a.8.8 0 0 1-.248-.115.58.58 0 0 1-.255-.384zM.806 13.693q0-.373.102-.633a.87.87 0 0 1 .302-.399.8.8 0 0 1 .475-.137q.225 0 .398.097a.7.7 0 0 1 .272.26.85.85 0 0 1 .12.381h.765v-.072a1.33 1.33 0 0 0-.466-.964 1.4 1.4 0 0 0-.489-.272 1.8 1.8 0 0 0-.606-.097q-.534 0-.911.223-.375.222-.572.632-.195.41-.196.979v.498q0 .568.193.976.197.407.572.626.375.217.914.217.439 0 .785-.164t.55-.454a1.27 1.27 0 0 0 .226-.674v-.076h-.764a.8.8 0 0 1-.118.363.7.7 0 0 1-.272.25.9.9 0 0 1-.401.087.85.85 0 0 1-.478-.132.83.83 0 0 1-.299-.392 1.7 1.7 0 0 1-.102-.627zM6.78 15.29a1.2 1.2 0 0 1-.111-.449h.764a.58.58 0 0 0 .255.384q.106.073.25.114.142.041.319.041.245 0 .413-.07a.56.56 0 0 0 .255-.193.5.5 0 0 0 .085-.29.39.39 0 0 0-.153-.326q-.152-.12-.463-.193l-.618-.143a1.7 1.7 0 0 1-.539-.214 1 1 0 0 1-.351-.367 1.1 1.1 0 0 1-.123-.524q0-.366.19-.639.19-.272.527-.422t.777-.149q.456 0 .779.152.326.153.5.41.18.255.2.566h-.75a.56.56 0 0 0-.12-.258.6.6 0 0 0-.246-.181.9.9 0 0 0-.37-.068q-.324 0-.512.152a.47.47 0 0 0-.184.384q0 .18.143.3a1 1 0 0 0 .404.175l.621.143q.326.075.566.211t.375.358.135.56q0 .37-.188.656a1.2 1.2 0 0 1-.539.439q-.351.158-.858.158-.381 0-.665-.09a1.4 1.4 0 0 1-.478-.252 1.1 1.1 0 0 1-.29-.375" />
    </symbol>
    <symbol id="icon-filetype-js" viewBox="0 0 16 16">
        <path fill-rule="evenodd"
            d="M14 4.5V14a2 2 0 0 1-2 2H8v-1h4a1 1 0 0 0 1-1V4.5h-2A1.5 1.5 0 0 1 9.5 3V1H4a1 1 0 0 0-1 1v9H2V2a2 2 0 0 1 2-2h5.5zM3.186 15.29a1.2 1.2 0 0 1-.111-.449h.765a.58.58 0 0 0 .255.384q.105.073.249.114.143.041.319.041.246 0 .413-.07a.56.56 0 0 0 .255-.193.5.5 0 0 0 .085-.29.39.39 0 0 0-.153-.326q-.151-.12-.462-.193l-.619-.143a1.7 1.7 0 0 1-.539-.214 1 1 0 0 1-.351-.367 1.1 1.1 0 0 1-.123-.524q0-.366.19-.639.19-.272.528-.422.336-.15.776-.149.457 0 .78.152.324.153.5.41.18.255.2.566h-.75a.56.56 0 0 0-.12-.258.6.6 0 0 0-.247-.181.9.9 0 0 0-.369-.068q-.325 0-.513.152a.47.47 0 0 0-.184.384q0 .18.143.3a1 1 0 0 0 .405.175l.62.143q.327.075.566.211.24.136.375.358t.135.56q0 .37-.188.656a1.2 1.2 0 0 1-.539.439q-.351.158-.858.158-.381 0-.665-.09a1.4 1.4 0 0 1-.478-.252 1.1 1.1 0 0 1-.29-.375m-3.104-.033A1.3 1.3 0 0 1 0 14.791h.765a.6.6 0 0 0 .073.27.5.5 0 0 0 .454.246q.285 0 .422-.164.138-.165.138-.466v-2.745h.79v2.725q0 .66-.357 1.005-.354.345-.984.345a1.6 1.6 0 0 1-.569-.094 1.15 1.15 0 0 1-.407-.266 1.1 1.1 0 0 1-.243-.39" />
    </symbol>
    <symbol id="icon-filetype-html" viewBox="0 0 16 16">
        <path fill-rule="evenodd"
            d="M14 4.5V11h-1V4.5h-2A1.5 1.5 0 0 1 9.5 3V1H4a1 1 0 0 0-1 1v9H2V2a2 2 0 0 1 2-2h5.5zm-9.736 7.35v3.999h-.791v-1.714H1.79v1.714H1V11.85h.791v1.626h1.682V11.85h.79Zm2.251.662v3.337h-.794v-3.337H4.588v-.662h3.064v.662zm2.176 3.337v-2.66h.038l.952 2.159h.516l.946-2.16h.038v2.661h.715V11.85h-.8l-1.14 2.596H9.93L8.79 11.85h-.805v3.999zm4.71-.674h1.696v.674H12.61V11.85h.79v3.325Z" />
    </symbol>
    <symbol id="icon-filetype-xquery" viewBox="0 0 16 16">
        <path
            d="M14 4.5V14a2 2 0 0 1-2 2H4a2 2 0 0 1-2-2V2a2 2 0 0 1 2-2h5.5zm-3 0A1.5 1.5 0 0 1 9.5 3V1H4a1 1 0 0 0-1 1v12a1 1 0 0 0 1 1h8a1 1 0 0 0 1-1V4.5z" />
        <path
            d="M8.646 6.646a.5.5 0 0 1 .708 0l2 2a.5.5 0 0 1 0 .708l-2 2a.5.5 0 0 1-.708-.708L10.293 9 8.646 7.354a.5.5 0 0 1 0-.708m-1.292 0a.5.5 0 0 0-.708 0l-2 2a.5.5 0 0 0 0 .708l2 2a.5.5 0 0 0 .708-.708L5.707 9l1.647-1.646a.5.5 0 0 0 0-.708" />
    </symbol>
    <symbol id="icon-rename" viewBox="0 0 16 16">
        <path
            d="M15.502 1.94a.5.5 0 0 1 0 .706L14.459 3.69l-2-2L13.502.646a.5.5 0 0 1 .707 0l1.293 1.293zm-1.75 2.456-2-2L4.939 9.21a.5.5 0 0 0-.121.196l-.805 2.414a.25.25 0 0 0 .316.316l2.414-.805a.5.5 0 0 0 .196-.12l6.813-6.814z" />
        <path fill-rule="evenodd"
            d="M1 13.5A1.5 1.5 0 0 0 2.5 15h11a1.5 1.5 0 0 0 1.5-1.5v-6a.5.5 0 0 0-1 0v6a.5.5 0 0 1-.5.5h-11a.5.5 0 0 1-.5-.5v-11a.5.5 0 0 1 .5-.5H9a.5.5 0 0 0 0-1H2.5A1.5 1.5 0 0 0 1 2.5z" />
    </symbol>

    <symbol id="icon-delete" viewBox="0 0 16 16">
        <path
            d="M6.5 1h3a.5.5 0 0 1 .5.5v1H6v-1a.5.5 0 0 1 .5-.5M11 2.5v-1A1.5 1.5 0 0 0 9.5 0h-3A1.5 1.5 0 0 0 5 1.5v1H1.5a.5.5 0 0 0 0 1h.538l.853 10.66A2 2 0 0 0 4.885 16h6.23a2 2 0 0 0 1.994-1.84l.853-10.66h.538a.5.5 0 0 0 0-1zm1.958 1-.846 10.58a1 1 0 0 1-.997.92h-6.23a1 1 0 0 1-.997-.92L3.042 3.5zm-7.487 1a.5.5 0 0 1 .528.47l.5 8.5a.5.5 0 0 1-.998.06L5 5.03a.5.5 0 0 1 .47-.53Zm5.058 0a.5.5 0 0 1 .47.53l-.5 8.5a.5.5 0 1 1-.998-.06l.5-8.5a.5.5 0 0 1 .528-.47M8 4.5a.5.5 0 0 1 .5.5v8.5a.5.5 0 0 1-1 0V5a.5.5 0 0 1 .5-.5" />
    </symbol>

    <symbol id="icon-copy" viewBox="0 0 16 16">
        <path fill-rule="evenodd"
            d="M4 2a2 2 0 0 1 2-2h8a2 2 0 0 1 2 2v8a2 2 0 0 1-2 2H6a2 2 0 0 1-2-2zm2-1a1 1 0 0 0-1 1v8a1 1 0 0 0 1 1h8a1 1 0 0 0 1-1V2a1 1 0 0 0-1-1zM2 5a1 1 0 0 0-1 1v8a1 1 0 0 0 1 1h8a1 1 0 0 0 1-1v-1h1v1a2 2 0 0 1-2 2H2a2 2 0 0 1-2-2V6a2 2 0 0 1 2-2h1v1z" />
    </symbol>

    <symbol id="icon-copy-path" viewBox="0 0 16 16">
        <path fill-rule="evenodd"
            d="M8 7a.5.5 0 0 1 .5.5V9H10a.5.5 0 0 1 0 1H8.5v1.5a.5.5 0 0 1-1 0V10H6a.5.5 0 0 1 0-1h1.5V7.5A.5.5 0 0 1 8 7" />
        <path
            d="M4 1.5H3a2 2 0 0 0-2 2V14a2 2 0 0 0 2 2h10a2 2 0 0 0 2-2V3.5a2 2 0 0 0-2-2h-1v1h1a1 1 0 0 1 1 1V14a1 1 0 0 1-1 1H3a1 1 0 0 1-1-1V3.5a1 1 0 0 1 1-1h1z" />
        <path
            d="M9.5 1a.5.5 0 0 1 .5.5v1a.5.5 0 0 1-.5.5h-3a.5.5 0 0 1-.5-.5v-1a.5.5 0 0 1 .5-.5zm-3-1A1.5 1.5 0 0 0 5 1.5v1A1.5 1.5 0 0 0 6.5 4h3A1.5 1.5 0 0 0 11 2.5v-1A1.5 1.5 0 0 0 9.5 0z" />
    </symbol>
</svg>
